<svg width="800" height="800" viewBox="0 0 800 800" fill="none" xmlns="http://www.w3.org/2000/svg">
<g clip-path="url(#clip0_1_9)">
<path d="M731.793 544.741C733.659 541.007 733.659 537.274 735.526 533.57C780.326 358.074 673.896 152.741 490.963 44.4741C548.8 116.948 583.763 209.867 583.763 310.993C583.763 341.57 580.563 371.378 574.489 400.148L574.993 397.333C572.415 408.889 569.215 418.904 565.215 428.504L565.659 427.289C559.733 424 554.844 420.919 550.133 417.6L550.696 417.956C409.748 324.652 286.963 223.141 175.852 110.133L175.526 109.807C247.763 216.533 322.637 309.807 404.326 396.563L403.259 395.407C281.156 317.185 175.052 236.059 76.1778 147.081L78.4296 149.067C92.4741 172.296 107.23 192.415 123.585 211.081L123.17 210.578C220.948 341.63 330.281 455.674 452.03 555.052L455.496 557.778C360.296 615.704 227.733 619.407 93.3037 557.778C57.6593 540.889 27.0519 522.222 -1.36295 500.8L1.73862e-05 501.778C59.9111 595.022 144.593 667.733 244.77 711.526L248.326 712.919C298.489 737.778 357.57 752.356 420.059 752.356C482.548 752.356 541.63 737.807 594.104 711.911L591.793 712.948H593.689C598.015 711.022 601.719 708.504 604.889 705.481H604.859C649.659 683.081 737.422 658.874 785.956 752.089C798.993 778.222 823.259 656.889 731.822 544.859L731.793 544.741Z" fill="#212427" fill-opacity="0.2"/>
</g>
<defs>
<clipPath id="clip0_1_9">
<rect width="800" height="800" fill="white"/>
</clipPath>
</defs>
</svg>
