<?xml version="1.0" encoding="UTF-8"?>
<!--Generator: Apple Native CoreSVG 326-->
<!DOCTYPE svg
PUBLIC "-//W3C//DTD SVG 1.1//EN"
       "http://www.w3.org/Graphics/SVG/1.1/DTD/svg11.dtd">
<svg version="1.1" xmlns="http://www.w3.org/2000/svg" xmlns:xlink="http://www.w3.org/1999/xlink" viewBox="0 0 50.6719 64.6172">
 <g>
  <rect height="64.6172" opacity="0" width="50.6719" x="0" y="0"/>
  <path d="M17.5312 30.5391C13.6875 30.5391 10.5938 27.6562 10.5938 22.6641C10.5938 19.9922 11.5078 17.5547 13.2656 15.6328C15 13.7344 17.5781 12.4922 19.5938 12.4922C20.3906 12.4922 20.8125 12.9375 20.8125 13.5469C20.8125 14.1562 20.4375 14.4844 19.4297 14.7188C18 15 16.7578 15.5859 15.6562 16.5469C14.5312 17.4844 13.7578 18.7031 13.5 19.9219L14.0625 19.9219C15.1172 18.6328 16.5703 18.0703 18.2578 18.0703C21.6094 18.0703 23.9297 20.5078 23.9297 24.1875C23.9297 27.9141 21.2578 30.5391 17.5312 30.5391ZM33.3984 30.5156C29.5078 30.5156 26.4141 27.6328 26.4141 22.6406C26.4141 19.9688 27.3516 17.5312 29.1094 15.6094C30.7969 13.7812 33.4219 12.4688 35.4375 12.4688C36.2344 12.4688 36.6797 12.9141 36.6797 13.5234C36.6797 14.1328 36.2812 14.4609 35.2969 14.6953C33.8203 15 32.5312 15.5625 31.4531 16.5703C30.3516 17.5078 29.6016 18.7031 29.3438 19.8984L29.9062 19.8984C30.9375 18.6094 32.4141 18.0469 34.0781 18.0469C37.4531 18.0469 39.7969 20.4844 39.7969 24.1641C39.7969 27.8906 37.1016 30.5156 33.3984 30.5156ZM13.0547 41.8594C12.0469 41.8594 11.3203 41.1094 11.3203 40.1719C11.3203 39.2578 12.0469 38.5312 13.0547 38.5312L37.3828 38.5312C38.3438 38.5312 39.0703 39.2578 39.0703 40.1719C39.0703 41.1094 38.3438 41.8594 37.3828 41.8594ZM13.0547 51.3047C12.0469 51.3047 11.3203 50.5781 11.3203 49.6406C11.3203 48.6797 12.0469 47.9297 13.0547 47.9297L24.6562 47.9297C25.6406 47.9297 26.3672 48.6797 26.3672 49.6406C26.3672 50.5781 25.6406 51.3047 24.6562 51.3047ZM0 55.5C0 61.5469 3.02344 64.6172 9.02344 64.6172L41.2969 64.6172C47.2969 64.6172 50.3203 61.5469 50.3203 55.5L50.3203 9.14062C50.3203 3.09375 47.2969 0.0234375 41.2969 0.0234375L9.02344 0.0234375C3.02344 0.0234375 0 3.09375 0 9.14062Z" fill="white" fill-opacity="0.85"/>
 </g>
</svg>
