<?xml version="1.0" encoding="UTF-8"?>
<!--Generator: Apple Native CoreSVG 326-->
<!DOCTYPE svg
PUBLIC "-//W3C//DTD SVG 1.1//EN"
       "http://www.w3.org/Graphics/SVG/1.1/DTD/svg11.dtd">
<svg version="1.1" xmlns="http://www.w3.org/2000/svg" xmlns:xlink="http://www.w3.org/1999/xlink" viewBox="0 0 72.6797 51.4922">
 <g>
  <rect height="51.4922" opacity="0" width="72.6797" x="0" y="0"/>
  <path d="M36.1641 29.4375C37.1719 29.4375 38.1562 29.0391 39.1641 28.125L69.1406 1.59375C67.5938 0.515625 65.7188 0.0234375 63.1875 0.0234375L9.11719 0.0234375C6.58594 0.0234375 4.73438 0.515625 3.16406 1.59375L33.1641 28.125C34.1719 29.0391 35.1328 29.4375 36.1641 29.4375ZM0.9375 47.0625L23.4141 24.6094L0.84375 4.64062C0.398438 5.36719 0 6.96094 0 9.04688L0 42.4453C0 44.4375 0.351562 45.9141 0.9375 47.0625ZM8.41406 51.4922L63.9141 51.4922C66.2109 51.4922 67.875 50.9297 69 50.1328L46.0078 27.1406L41.4844 31.1484C39.7734 32.6484 37.9922 33.3984 36.1641 33.3984C34.3125 33.3984 32.5547 32.6484 30.8438 31.1484L26.3203 27.1406L3.30469 50.1328C4.42969 50.9297 6.11719 51.4922 8.41406 51.4922ZM71.3906 47.0625C71.9766 45.9141 72.3281 44.4375 72.3281 42.4453L72.3281 9.04688C72.3281 6.96094 71.9062 5.36719 71.4609 4.64062L48.8906 24.6094Z" fill="#212427"/>
 </g>
</svg>
