<?xml version="1.0" encoding="UTF-8"?>
<!--Generator: Apple Native CoreSVG 326-->
<!DOCTYPE svg
PUBLIC "-//W3C//DTD SVG 1.1//EN"
       "http://www.w3.org/Graphics/SVG/1.1/DTD/svg11.dtd">
<svg version="1.1" xmlns="http://www.w3.org/2000/svg" xmlns:xlink="http://www.w3.org/1999/xlink" viewBox="0 0 71.0625 62.9297">
 <g>
  <rect height="62.9297" opacity="0" width="71.0625" x="0" y="0"/>
  <path d="M27.1406 58.7344L27.1406 40.6172C27.1406 39.3047 28.0078 38.4609 29.3203 38.4609L41.4141 38.4609C42.7266 38.4609 43.5703 39.3047 43.5703 40.6172L43.5703 58.7344ZM8.95312 56.5547C8.95312 60.5391 11.3438 62.8828 15.375 62.8828L55.3359 62.8828C59.3672 62.8828 61.7578 60.5391 61.7578 56.5547L61.7578 31.3359L37.1953 10.7344C36 9.70312 34.6406 9.75 33.4922 10.7344L8.95312 31.2891ZM2.22656 31.2422C2.92969 31.2422 3.51562 30.8672 4.03125 30.4219L34.2188 5.08594C34.5703 4.78125 34.9688 4.64062 35.3438 4.64062C35.7422 4.64062 36.1406 4.78125 36.4922 5.08594L66.6797 30.4219C67.1953 30.8672 67.7578 31.2422 68.4844 31.2422C69.8672 31.2422 70.7109 30.2344 70.7109 29.2031C70.7109 28.5703 70.4531 27.9609 69.8672 27.4688L38.7422 1.35938C37.6641 0.445312 36.5156 0 35.3438 0C34.1953 0 33.0469 0.445312 31.9688 1.35938L0.84375 27.4688C0.257812 27.9609 0 28.5703 0 29.2031C0 30.2344 0.820312 31.2422 2.22656 31.2422ZM55.3359 16.5703L62.2266 22.3828L62.2266 9.04688C62.2266 7.875 61.4531 7.125 60.2812 7.125L57.3047 7.125C56.1328 7.125 55.3359 7.875 55.3359 9.04688Z" fill="white" fill-opacity="0.85"/>
 </g>
</svg>
