<?xml version="1.0" encoding="UTF-8"?>
<!--Generator: Apple Native CoreSVG 326-->
<!DOCTYPE svg
PUBLIC "-//W3C//DTD SVG 1.1//EN"
       "http://www.w3.org/Graphics/SVG/1.1/DTD/svg11.dtd">
<svg version="1.1" xmlns="http://www.w3.org/2000/svg" xmlns:xlink="http://www.w3.org/1999/xlink" viewBox="0 0 72.3984 60.3984">
 <g>
  <rect height="60.3984" opacity="0" width="72.3984" x="0" y="0"/>
  <path d="M72.0469 19.9922C72.0469 32.4609 54.4688 32.9531 54.4688 38.25C54.4688 42 59.6016 43.1484 59.6016 49.0078C59.6016 55.4297 51.2109 59.7891 38.7422 59.7891C15.6328 59.7891 0 47.9766 0 30.4219C0 12.1875 16.5 0 40.9922 0C59.5781 0 72.0469 7.94531 72.0469 19.9922ZM30.0469 40.5234C30.0469 44.9297 33.6328 48.5391 38.0156 48.5391C42.4453 48.5391 46.0312 44.9297 46.0312 40.5234C46.0312 36.1172 42.4453 32.5312 38.0156 32.5312C33.6328 32.5312 30.0469 36.1172 30.0469 40.5234ZM9.30469 29.0156C9.30469 31.6641 11.4844 33.8672 14.1094 33.8672C16.7578 33.8672 18.9141 31.6641 18.9141 29.0156C18.9141 26.3438 16.7812 24.2344 14.1094 24.2344C11.5547 24.2344 9.30469 26.4375 9.30469 29.0156ZM19.1953 17.1328C19.1953 20.6719 22.0078 23.4141 25.5234 23.4141C28.9688 23.4141 31.7812 20.6719 31.7812 17.1328C31.7812 13.6875 28.9688 10.9453 25.5234 10.9453C22.0078 10.9453 19.1953 13.6875 19.1953 17.1328ZM51.6328 17.2734C51.6328 19.4766 53.4141 21.2344 55.6406 21.2344C57.7969 21.2344 59.5312 19.5 59.5312 17.2734C59.5312 15.1172 57.7734 13.3359 55.6406 13.3359C53.4375 13.3359 51.6328 15.1172 51.6328 17.2734ZM36.6797 13.7109C36.6797 16.4297 38.9297 18.6328 41.6484 18.6328C44.3906 18.6328 46.5703 16.4531 46.5703 13.7109C46.5703 10.9688 44.3906 8.76562 41.6484 8.76562C38.9297 8.76562 36.6797 10.9922 36.6797 13.7109Z" fill="white" fill-opacity="0.85"/>
 </g>
</svg>
